<svg width="509" height="275" viewBox="0 0 509 275" fill="none" xmlns="http://www.w3.org/2000/svg">
<path d="M257.903 167.468V137.314L288.433 136.938L257.903 167.468ZM311.407 0.209961C340.11 0.209961 364.354 8.98794 384.14 26.5439C386.745 28.8558 389.177 31.3192 391.439 33.9307L325.681 99.6895C324.769 91.9637 322.104 85.5556 317.678 80.4658C312.662 74.0565 303.884 70.8516 291.344 70.8516L238.676 71.2695V87H163.436V75.4502L238.676 0.209961H311.407Z" fill="#8ADDC0"/>
<path d="M144.806 71.06H144.149C125.263 71.06 108.459 77.748 93.7388 91.124C79.2961 104.221 72.0747 120.384 72.0747 139.612C72.0747 157.168 77.9074 172.495 89.5726 185.592C101.516 198.689 116.236 205.238 133.734 205.238H163.73V273.79L129.568 274.208C92.9056 274.208 62.0759 261.111 37.0789 234.916C12.3596 208.721 0 177.093 0 140.03C0 101.574 14.5816 68.6913 43.7448 41.382C72.908 14.0727 107.487 0.417999 147.482 0.417999L215.214 0L144.806 71.06ZM163.73 273.79V104.5H239.196V273.79H163.73Z" fill="#15BB81"/>
<path d="M259 184.756L443.756 0H508.964V273.79H433.724V238.678H315.012L382.31 171.798H433.724V99.066L259 273.79V184.756Z" fill="white"/>
</svg>
